<svg xmlns="http://www.w3.org/2000/svg" xmlns:xlink="http://www.w3.org/1999/xlink" width="6912" zoomAndPan="magnify" viewBox="0 0 5184 2592.000001" height="3456" preserveAspectRatio="xMidYMid meet" version="1.0"><defs><g/><clipPath id="9960aeab06"><path d="M 1 0 L 5183 0 L 5183 2591 L 1 2591 Z M 1 0 " clip-rule="nonzero"/></clipPath><clipPath id="40fee51217"><path d="M 44.003906 567.65625 L 1499.941406 567.65625 L 1499.941406 2023.59375 L 44.003906 2023.59375 Z M 44.003906 567.65625 " clip-rule="nonzero"/></clipPath><clipPath id="68aceecf18"><path d="M 3758 813 L 4889 813 L 4889 1813.402344 L 3758 1813.402344 Z M 3758 813 " clip-rule="nonzero"/></clipPath></defs><g clip-path="url(#9960aeab06)"><path fill="#ffffff" d="M 1 0 L 5183 0 L 5183 2598.496094 L 1 2598.496094 Z M 1 0 " fill-opacity="1" fill-rule="nonzero"/></g><path fill="#ffffff" d="M 1 0 L 5183 0 L 5183 2591 L 1 2591 Z M 1 0 " fill-opacity="1" fill-rule="nonzero"/><path fill="#1d9bf0" d="M 1 0 L 5183 0 L 5183 2591 L 1 2591 Z M 1 0 " fill-opacity="1" fill-rule="nonzero"/><g clip-path="url(#40fee51217)"><path fill="#1d9bf0" d="M 1317.949219 2023.59375 L 225.996094 2023.59375 C 125.535156 2023.59375 44.003906 1942.0625 44.003906 1841.601562 L 44.003906 749.648438 C 44.003906 649.1875 125.535156 567.65625 225.996094 567.65625 L 1317.949219 567.65625 C 1418.410156 567.65625 1499.941406 649.1875 1499.941406 749.648438 L 1499.941406 1841.601562 C 1499.941406 1942.0625 1418.410156 2023.59375 1317.949219 2023.59375 Z M 1317.949219 2023.59375 " fill-opacity="1" fill-rule="nonzero"/></g><path fill="#ffffff" d="M 603.085938 1665.433594 C 946.320312 1665.433594 1134.136719 1380.796875 1134.136719 1134.378906 C 1134.136719 1126.371094 1134.136719 1118.363281 1133.773438 1110.355469 C 1170.171875 1084.148438 1201.839844 1051.027344 1226.953125 1013.535156 C 1193.46875 1028.460938 1157.433594 1038.285156 1119.578125 1043.019531 C 1158.160156 1020.085938 1187.644531 983.324219 1201.839844 939.648438 C 1165.804688 961.121094 1125.765625 976.410156 1083.179688 984.78125 C 1048.964844 948.382812 1000.554688 925.816406 947.050781 925.816406 C 844.042969 925.816406 760.324219 1009.53125 760.324219 1112.539062 C 760.324219 1127.097656 762.144531 1141.292969 765.058594 1155.125 C 610 1147.480469 472.414062 1072.867188 380.324219 960.03125 C 364.308594 987.691406 355.210938 1019.722656 355.210938 1053.9375 C 355.210938 1118.726562 388.332031 1175.875 438.199219 1209.359375 C 407.625 1208.269531 378.871094 1199.894531 353.753906 1186.066406 C 353.753906 1186.792969 353.753906 1187.519531 353.753906 1188.613281 C 353.753906 1278.878906 418.179688 1354.589844 503.351562 1371.695312 C 487.699219 1376.066406 471.320312 1378.25 454.214844 1378.25 C 442.203125 1378.25 430.554688 1377.15625 419.273438 1374.972656 C 442.929688 1449.226562 512.089844 1503.09375 593.621094 1504.550781 C 529.558594 1554.78125 449.117188 1584.628906 361.761719 1584.628906 C 346.839844 1584.628906 331.914062 1583.898438 317.355469 1582.078125 C 399.617188 1634.492188 497.890625 1665.433594 603.085938 1665.433594 " fill-opacity="1" fill-rule="nonzero"/><g clip-path="url(#68aceecf18)"><path fill="#ffffff" d="M 4323.730469 1813.730469 C 4321.027344 1813.730469 4318.351562 1813.460938 4315.699219 1812.921875 C 4313.050781 1812.382812 4310.480469 1811.582031 4307.992188 1810.527344 C 4305.503906 1809.472656 4303.140625 1808.183594 4300.914062 1806.652344 C 4298.683594 1805.125 4296.625 1803.386719 4294.746094 1801.445312 L 3845.433594 1336.957031 C 3842.097656 1333.503906 3838.839844 1329.976562 3835.664062 1326.375 C 3832.492188 1322.773438 3829.402344 1319.097656 3826.398438 1315.351562 C 3823.398438 1311.605469 3820.484375 1307.789062 3817.65625 1303.90625 C 3814.832031 1300.023438 3812.101562 1296.078125 3809.457031 1292.066406 C 3806.816406 1288.058594 3804.273438 1283.988281 3801.820312 1279.859375 C 3799.371094 1275.730469 3797.015625 1271.546875 3794.757812 1267.308594 C 3792.503906 1263.070312 3790.347656 1258.785156 3788.289062 1254.445312 C 3786.234375 1250.105469 3784.28125 1245.722656 3782.429688 1241.292969 C 3780.578125 1236.863281 3778.828125 1232.390625 3777.1875 1227.882812 C 3775.542969 1223.371094 3774.007812 1218.824219 3772.574219 1214.238281 C 3771.144531 1209.65625 3769.820312 1205.042969 3768.605469 1200.398438 C 3767.386719 1195.753906 3766.28125 1191.085938 3765.285156 1186.386719 C 3764.285156 1181.691406 3763.398438 1176.976562 3762.617188 1172.238281 C 3761.839844 1167.5 3761.171875 1162.746094 3760.617188 1157.980469 C 3760.058594 1153.210938 3759.613281 1148.429688 3759.28125 1143.640625 C 3758.949219 1138.851562 3758.726562 1134.058594 3758.617188 1129.257812 C 3758.503906 1124.457031 3758.507812 1119.660156 3758.621094 1114.859375 C 3758.734375 1110.058594 3758.960938 1105.265625 3759.296875 1100.476562 C 3759.636719 1095.6875 3760.082031 1090.910156 3760.644531 1086.140625 C 3761.203125 1081.371094 3761.875 1076.621094 3762.65625 1071.882812 C 3763.4375 1067.148438 3764.332031 1062.429688 3765.332031 1057.734375 C 3766.335938 1053.039062 3767.445312 1048.371094 3768.664062 1043.726562 C 3769.882812 1039.082031 3771.210938 1034.46875 3772.644531 1029.890625 C 3774.082031 1025.308594 3775.621094 1020.761719 3777.269531 1016.25 C 3778.914062 1011.742188 3780.664062 1007.273438 3782.519531 1002.84375 C 3784.375 998.414062 3786.332031 994.03125 3788.390625 989.695312 C 3790.453125 985.359375 3792.609375 981.070312 3794.871094 976.835938 C 3797.128906 972.597656 3799.488281 968.417969 3801.941406 964.289062 C 3804.394531 960.164062 3806.945312 956.097656 3809.589844 952.089844 C 3812.234375 948.082031 3814.96875 944.136719 3817.796875 940.257812 C 3820.625 936.375 3823.542969 932.5625 3826.546875 928.820312 C 3829.554688 925.074219 3832.644531 921.402344 3835.820312 917.800781 C 3839 914.203125 3842.257812 910.675781 3845.597656 907.230469 C 3848.941406 903.78125 3852.359375 900.410156 3855.859375 897.121094 C 3859.359375 893.832031 3862.929688 890.628906 3866.578125 887.503906 C 3870.226562 884.382812 3873.945312 881.347656 3877.734375 878.398438 C 3881.527344 875.449219 3885.382812 872.589844 3889.304688 869.820312 C 3893.226562 867.050781 3897.214844 864.371094 3901.261719 861.789062 C 3905.308594 859.203125 3909.414062 856.714844 3913.578125 854.324219 C 3917.742188 851.929688 3921.960938 849.636719 3926.230469 847.441406 C 3930.5 845.246094 3934.820312 843.148438 3939.191406 841.15625 C 3943.558594 839.160156 3947.972656 837.269531 3952.429688 835.480469 C 3956.882812 833.691406 3961.378906 832.007812 3965.914062 830.425781 C 3970.453125 828.847656 3975.019531 827.375 3979.625 826.007812 C 3984.230469 824.640625 3988.863281 823.382812 3993.523438 822.230469 C 3998.1875 821.082031 4002.875 820.039062 4007.585938 819.105469 C 4012.296875 818.175781 4017.027344 817.351562 4021.777344 816.640625 C 4026.527344 815.929688 4031.292969 815.328125 4036.070312 814.839844 C 4040.847656 814.347656 4045.632812 813.96875 4050.429688 813.703125 C 4055.222656 813.4375 4060.023438 813.28125 4064.824219 813.238281 C 4069.628906 813.195312 4074.429688 813.265625 4079.226562 813.445312 C 4084.027344 813.625 4088.820312 813.917969 4093.605469 814.320312 C 4098.390625 814.726562 4103.164062 815.238281 4107.925781 815.867188 C 4112.6875 816.492188 4117.433594 817.230469 4122.160156 818.078125 C 4126.886719 818.925781 4131.59375 819.882812 4136.273438 820.949219 C 4140.957031 822.015625 4145.613281 823.191406 4150.242188 824.472656 C 4154.867188 825.757812 4159.464844 827.148438 4164.027344 828.644531 C 4168.589844 830.144531 4173.117188 831.746094 4177.605469 833.457031 C 4182.09375 835.164062 4186.539062 836.976562 4190.941406 838.890625 C 4195.347656 840.808594 4199.703125 842.824219 4204.011719 844.945312 C 4208.320312 847.0625 4212.578125 849.28125 4216.785156 851.597656 C 4220.992188 853.917969 4225.140625 856.332031 4229.234375 858.839844 C 4233.328125 861.351562 4237.363281 863.957031 4241.335938 866.65625 C 4245.308594 869.355469 4249.214844 872.144531 4253.054688 875.023438 L 4323.730469 928.019531 L 4394.425781 875.023438 C 4398.269531 872.144531 4402.175781 869.355469 4406.148438 866.65625 C 4410.121094 863.960938 4414.152344 861.355469 4418.246094 858.84375 C 4422.339844 856.335938 4426.488281 853.921875 4430.695312 851.605469 C 4434.902344 849.289062 4439.160156 847.070312 4443.46875 844.953125 C 4447.78125 842.835938 4452.136719 840.820312 4456.539062 838.902344 C 4460.941406 836.988281 4465.390625 835.175781 4469.875 833.46875 C 4474.363281 831.761719 4478.890625 830.15625 4483.453125 828.660156 C 4488.015625 827.164062 4492.613281 825.773438 4497.238281 824.488281 C 4501.867188 823.207031 4506.523438 822.03125 4511.203125 820.964844 C 4515.886719 819.898438 4520.589844 818.945312 4525.316406 818.097656 C 4530.046875 817.25 4534.789062 816.511719 4539.550781 815.886719 C 4544.3125 815.261719 4549.085938 814.746094 4553.871094 814.34375 C 4558.65625 813.941406 4563.449219 813.648438 4568.246094 813.46875 C 4573.046875 813.289062 4577.847656 813.21875 4582.648438 813.261719 C 4587.449219 813.308594 4592.25 813.460938 4597.042969 813.730469 C 4601.839844 813.996094 4606.625 814.375 4611.402344 814.867188 C 4616.179688 815.355469 4620.941406 815.957031 4625.691406 816.667969 C 4630.441406 817.382812 4635.171875 818.203125 4639.882812 819.136719 C 4644.59375 820.070312 4649.28125 821.109375 4653.941406 822.261719 C 4658.605469 823.410156 4663.238281 824.671875 4667.839844 826.039062 C 4672.445312 827.40625 4677.015625 828.878906 4681.546875 830.457031 C 4686.082031 832.035156 4690.578125 833.722656 4695.035156 835.511719 C 4699.492188 837.300781 4703.902344 839.191406 4708.273438 841.1875 C 4712.640625 843.179688 4716.960938 845.277344 4721.230469 847.472656 C 4725.5 849.667969 4729.71875 851.964844 4733.878906 854.355469 C 4738.042969 856.75 4742.148438 859.238281 4746.195312 861.820312 C 4750.242188 864.402344 4754.230469 867.082031 4758.152344 869.851562 C 4762.074219 872.621094 4765.929688 875.480469 4769.71875 878.429688 C 4773.507812 881.378906 4777.226562 884.414062 4780.875 887.535156 C 4784.523438 890.660156 4788.09375 893.863281 4791.59375 897.152344 C 4795.089844 900.441406 4798.511719 903.8125 4801.851562 907.257812 C 4805.191406 910.707031 4808.453125 914.230469 4811.628906 917.832031 C 4814.804688 921.433594 4817.894531 925.105469 4820.902344 928.847656 C 4823.90625 932.59375 4826.824219 936.40625 4829.652344 940.285156 C 4832.480469 944.164062 4835.214844 948.109375 4837.859375 952.117188 C 4840.503906 956.125 4843.050781 960.191406 4845.503906 964.316406 C 4847.960938 968.441406 4850.316406 972.625 4852.574219 976.859375 C 4854.835938 981.097656 4856.992188 985.382812 4859.054688 989.71875 C 4861.113281 994.058594 4863.070312 998.4375 4864.925781 1002.867188 C 4866.777344 1007.296875 4868.53125 1011.765625 4870.175781 1016.273438 C 4871.824219 1020.78125 4873.363281 1025.328125 4874.796875 1029.910156 C 4876.234375 1034.492188 4877.558594 1039.101562 4878.777344 1043.746094 C 4880 1048.390625 4881.109375 1053.058594 4882.109375 1057.753906 C 4883.113281 1062.449219 4884.003906 1067.164062 4884.785156 1071.902344 C 4885.566406 1076.636719 4886.238281 1081.390625 4886.800781 1086.15625 C 4887.359375 1090.925781 4887.808594 1095.703125 4888.144531 1100.492188 C 4888.484375 1105.28125 4888.707031 1110.074219 4888.824219 1114.871094 C 4888.9375 1119.671875 4888.9375 1124.472656 4888.828125 1129.269531 C 4888.71875 1134.070312 4888.496094 1138.863281 4888.164062 1143.652344 C 4887.828125 1148.441406 4887.386719 1153.21875 4886.828125 1157.988281 C 4886.273438 1162.757812 4885.605469 1167.507812 4884.828125 1172.246094 C 4884.050781 1176.984375 4883.160156 1181.699219 4882.164062 1186.394531 C 4881.164062 1191.089844 4880.058594 1195.761719 4878.84375 1200.40625 C 4877.628906 1205.050781 4876.304688 1209.664062 4874.875 1214.246094 C 4873.441406 1218.828125 4871.90625 1223.375 4870.261719 1227.886719 C 4868.621094 1232.394531 4866.871094 1236.867188 4865.023438 1241.296875 C 4863.171875 1245.726562 4861.214844 1250.109375 4859.160156 1254.449219 C 4857.105469 1258.785156 4854.949219 1263.074219 4852.695312 1267.3125 C 4850.4375 1271.550781 4848.085938 1275.734375 4845.632812 1279.863281 C 4843.183594 1283.992188 4840.636719 1288.058594 4837.996094 1292.070312 C 4835.355469 1296.078125 4832.625 1300.023438 4829.800781 1303.90625 C 4826.976562 1307.789062 4824.0625 1311.605469 4821.058594 1315.351562 C 4818.058594 1319.097656 4814.96875 1322.773438 4811.796875 1326.375 C 4808.621094 1329.976562 4805.367188 1333.503906 4802.027344 1336.957031 L 4352.722656 1801.445312 C 4350.839844 1803.386719 4348.78125 1805.125 4346.554688 1806.652344 C 4344.324219 1808.179688 4341.960938 1809.472656 4339.472656 1810.527344 C 4336.984375 1811.582031 4334.414062 1812.378906 4331.761719 1812.917969 C 4329.113281 1813.457031 4326.433594 1813.730469 4323.730469 1813.730469 Z M 4067.902344 894.238281 C 4062.332031 894.21875 4056.765625 894.402344 4051.207031 894.789062 C 4045.648438 895.175781 4040.113281 895.765625 4034.597656 896.558594 C 4029.082031 897.351562 4023.601562 898.34375 4018.160156 899.539062 C 4012.71875 900.734375 4007.328125 902.125 4001.988281 903.714844 C 3996.648438 905.304688 3991.371094 907.089844 3986.164062 909.0625 C 3980.953125 911.039062 3975.824219 913.203125 3970.773438 915.554688 C 3965.722656 917.910156 3960.765625 920.441406 3955.898438 923.15625 C 3951.035156 925.871094 3946.273438 928.761719 3941.621094 931.828125 C 3936.96875 934.890625 3932.433594 938.121094 3928.019531 941.515625 C 3923.601562 944.914062 3919.316406 948.464844 3915.160156 952.175781 C 3911.003906 955.886719 3906.992188 959.746094 3903.117188 963.75 C 3899.246094 967.753906 3895.527344 971.894531 3891.957031 976.171875 C 3888.386719 980.449219 3884.980469 984.851562 3881.734375 989.378906 C 3878.488281 993.90625 3875.410156 998.542969 3872.507812 1003.296875 C 3869.601562 1008.050781 3866.871094 1012.902344 3864.320312 1017.855469 C 3861.773438 1022.804688 3859.40625 1027.84375 3857.226562 1032.96875 C 3855.046875 1038.097656 3853.054688 1043.292969 3851.257812 1048.566406 C 3849.457031 1053.835938 3847.851562 1059.167969 3846.445312 1064.554688 C 3845.035156 1069.945312 3843.828125 1075.378906 3842.816406 1080.855469 C 3841.808594 1086.332031 3841 1091.839844 3840.394531 1097.375 C 3839.785156 1102.914062 3839.382812 1108.464844 3839.1875 1114.03125 C 3838.988281 1119.597656 3838.992188 1125.164062 3839.199219 1130.730469 C 3839.410156 1136.296875 3839.824219 1141.84375 3840.4375 1147.382812 C 3841.054688 1152.917969 3841.875 1158.421875 3842.894531 1163.898438 C 3843.914062 1169.375 3845.132812 1174.804688 3846.550781 1180.191406 C 3847.96875 1185.578125 3849.582031 1190.90625 3851.390625 1196.171875 C 3853.199219 1201.441406 3855.199219 1206.636719 3857.390625 1211.757812 C 3859.582031 1216.878906 3861.953125 1221.914062 3864.515625 1226.859375 C 3867.074219 1231.808594 3869.808594 1236.65625 3872.726562 1241.402344 C 3875.640625 1246.148438 3878.722656 1250.78125 3881.976562 1255.304688 C 3885.234375 1259.824219 3888.648438 1264.21875 3892.226562 1268.492188 C 3895.800781 1272.761719 3899.53125 1276.894531 3903.410156 1280.894531 L 4323.730469 1715.433594 L 4744.050781 1280.894531 C 4746.519531 1278.34375 4748.925781 1275.734375 4751.273438 1273.074219 C 4753.621094 1270.410156 4755.902344 1267.695312 4758.125 1264.925781 C 4760.34375 1262.15625 4762.5 1259.335938 4764.585938 1256.46875 C 4766.675781 1253.597656 4768.695312 1250.683594 4770.648438 1247.71875 C 4772.601562 1244.753906 4774.484375 1241.746094 4776.296875 1238.695312 C 4778.109375 1235.644531 4779.847656 1232.554688 4781.515625 1229.421875 C 4783.183594 1226.289062 4784.777344 1223.117188 4786.296875 1219.910156 C 4787.816406 1216.707031 4789.261719 1213.464844 4790.632812 1210.191406 C 4792 1206.917969 4793.292969 1203.613281 4794.507812 1200.277344 C 4795.722656 1196.945312 4796.859375 1193.582031 4797.917969 1190.195312 C 4798.976562 1186.808594 4799.953125 1183.398438 4800.851562 1179.964844 C 4801.75 1176.53125 4802.570312 1173.082031 4803.308594 1169.609375 C 4804.046875 1166.140625 4804.703125 1162.652344 4805.277344 1159.152344 C 4805.855469 1155.648438 4806.347656 1152.136719 4806.757812 1148.613281 C 4807.171875 1145.085938 4807.5 1141.554688 4807.746094 1138.015625 C 4807.992188 1134.476562 4808.15625 1130.929688 4808.238281 1127.382812 C 4808.320312 1123.835938 4808.320312 1120.289062 4808.234375 1116.742188 C 4808.152344 1113.191406 4807.984375 1109.648438 4807.734375 1106.109375 C 4807.488281 1102.570312 4807.15625 1099.039062 4806.742188 1095.511719 C 4806.328125 1091.988281 4805.832031 1088.476562 4805.253906 1084.976562 C 4804.675781 1081.472656 4804.015625 1077.988281 4803.277344 1074.515625 C 4802.535156 1071.046875 4801.714844 1067.59375 4800.8125 1064.164062 C 4799.914062 1060.730469 4798.933594 1057.320312 4797.871094 1053.933594 C 4796.8125 1050.546875 4795.671875 1047.1875 4794.457031 1043.855469 C 4793.238281 1040.519531 4791.945312 1037.21875 4790.574219 1033.945312 C 4789.203125 1030.671875 4787.753906 1027.433594 4786.234375 1024.226562 C 4784.710938 1021.019531 4783.113281 1017.851562 4781.445312 1014.722656 C 4779.773438 1011.589844 4778.03125 1008.5 4776.21875 1005.449219 C 4774.402344 1002.398438 4772.519531 999.390625 4770.566406 996.429688 C 4768.609375 993.46875 4766.589844 990.550781 4764.5 987.683594 C 4762.40625 984.816406 4760.25 982 4758.03125 979.230469 C 4755.808594 976.464844 4753.523438 973.75 4751.175781 971.085938 C 4748.828125 968.425781 4746.417969 965.820312 4743.945312 963.273438 C 4741.476562 960.722656 4738.949219 958.234375 4736.363281 955.804688 C 4733.777344 953.371094 4731.136719 951.003906 4728.4375 948.695312 C 4725.742188 946.386719 4722.992188 944.144531 4720.191406 941.964844 C 4717.390625 939.785156 4714.542969 937.671875 4711.640625 935.625 C 4708.742188 933.578125 4705.796875 931.597656 4702.804688 929.6875 C 4699.8125 927.777344 4696.777344 925.941406 4693.699219 924.171875 C 4690.621094 922.402344 4687.503906 920.707031 4684.347656 919.085938 C 4681.191406 917.460938 4677.996094 915.914062 4674.765625 914.441406 C 4671.539062 912.964844 4668.277344 911.566406 4664.980469 910.246094 C 4661.6875 908.925781 4658.363281 907.679688 4655.011719 906.511719 C 4651.660156 905.34375 4648.28125 904.257812 4644.878906 903.246094 C 4641.476562 902.238281 4638.050781 901.308594 4634.605469 900.457031 C 4631.15625 899.605469 4627.691406 898.835938 4624.210938 898.148438 C 4620.726562 897.460938 4617.230469 896.851562 4613.722656 896.328125 C 4610.210938 895.800781 4606.6875 895.359375 4603.15625 894.996094 C 4599.625 894.636719 4596.089844 894.355469 4592.542969 894.160156 C 4589 893.960938 4585.453125 893.847656 4581.902344 893.816406 C 4578.351562 893.785156 4574.804688 893.835938 4571.257812 893.972656 C 4567.710938 894.105469 4564.167969 894.320312 4560.628906 894.621094 C 4557.09375 894.917969 4553.5625 895.300781 4550.042969 895.765625 C 4546.523438 896.226562 4543.019531 896.773438 4539.523438 897.402344 C 4536.03125 898.027344 4532.554688 898.734375 4529.09375 899.523438 C 4525.632812 900.3125 4522.191406 901.183594 4518.769531 902.132812 C 4515.347656 903.082031 4511.953125 904.109375 4508.578125 905.21875 C 4505.207031 906.324219 4501.863281 907.511719 4498.546875 908.773438 C 4495.230469 910.039062 4491.941406 911.378906 4488.6875 912.796875 C 4485.433594 914.210938 4482.214844 915.703125 4479.027344 917.269531 C 4475.84375 918.839844 4472.695312 920.476562 4469.585938 922.191406 C 4466.480469 923.90625 4463.410156 925.691406 4460.386719 927.546875 C 4457.359375 929.402344 4454.378906 931.328125 4451.445312 933.324219 C 4448.507812 935.320312 4445.621094 937.382812 4442.78125 939.511719 L 4347.929688 1010.65625 C 4347.066406 1011.308594 4346.175781 1011.921875 4345.261719 1012.5 C 4344.347656 1013.082031 4343.410156 1013.621094 4342.453125 1014.125 C 4341.496094 1014.628906 4340.515625 1015.09375 4339.523438 1015.519531 C 4338.527344 1015.941406 4337.515625 1016.328125 4336.488281 1016.667969 C 4335.460938 1017.011719 4334.421875 1017.3125 4333.371094 1017.574219 C 4332.320312 1017.832031 4331.261719 1018.050781 4330.195312 1018.222656 C 4329.125 1018.398438 4328.050781 1018.527344 4326.972656 1018.613281 C 4325.894531 1018.703125 4324.8125 1018.746094 4323.730469 1018.746094 C 4322.648438 1018.746094 4321.566406 1018.703125 4320.488281 1018.613281 C 4319.410156 1018.527344 4318.335938 1018.398438 4317.269531 1018.222656 C 4316.199219 1018.050781 4315.140625 1017.832031 4314.089844 1017.574219 C 4313.039062 1017.3125 4312 1017.011719 4310.972656 1016.667969 C 4309.945312 1016.328125 4308.9375 1015.941406 4307.941406 1015.519531 C 4306.945312 1015.09375 4305.96875 1014.628906 4305.011719 1014.125 C 4304.050781 1013.621094 4303.117188 1013.082031 4302.203125 1012.5 C 4301.289062 1011.921875 4300.398438 1011.308594 4299.53125 1010.65625 L 4204.652344 939.511719 C 4199.757812 935.855469 4194.726562 932.398438 4189.550781 929.144531 C 4184.378906 925.894531 4179.085938 922.855469 4173.667969 920.027344 C 4168.25 917.203125 4162.726562 914.597656 4157.101562 912.21875 C 4151.472656 909.835938 4145.757812 907.6875 4139.957031 905.765625 C 4134.15625 903.84375 4128.289062 902.160156 4122.351562 900.714844 C 4116.414062 899.265625 4110.429688 898.058594 4104.394531 897.09375 C 4098.363281 896.128906 4092.300781 895.40625 4086.207031 894.929688 C 4080.113281 894.453125 4074.011719 894.222656 4067.902344 894.238281 Z M 4067.902344 894.238281 " fill-opacity="1" fill-rule="nonzero"/></g><path fill="#ffffff" d="M 4283.402344 1434.4375 C 4280.753906 1434.441406 4278.128906 1434.183594 4275.53125 1433.667969 C 4272.933594 1433.15625 4270.410156 1432.390625 4267.964844 1431.375 C 4265.519531 1430.363281 4263.195312 1429.121094 4260.992188 1427.648438 C 4258.792969 1426.175781 4256.757812 1424.5 4254.886719 1422.625 L 4133.894531 1301.679688 C 4132.988281 1300.742188 4132.128906 1299.757812 4131.316406 1298.738281 C 4130.503906 1297.714844 4129.742188 1296.65625 4129.035156 1295.558594 C 4128.324219 1294.460938 4127.671875 1293.332031 4127.070312 1292.171875 C 4126.472656 1291.011719 4125.929688 1289.828125 4125.445312 1288.613281 C 4124.960938 1287.402344 4124.539062 1286.167969 4124.171875 1284.914062 C 4123.808594 1283.660156 4123.507812 1282.390625 4123.265625 1281.109375 C 4123.023438 1279.824219 4122.847656 1278.53125 4122.730469 1277.230469 C 4122.617188 1275.929688 4122.5625 1274.628906 4122.574219 1273.320312 C 4122.585938 1272.015625 4122.660156 1270.714844 4122.800781 1269.414062 C 4122.9375 1268.117188 4123.136719 1266.828125 4123.402344 1265.550781 C 4123.664062 1264.269531 4123.988281 1263.007812 4124.375 1261.761719 C 4124.761719 1260.511719 4125.207031 1259.285156 4125.710938 1258.082031 C 4126.214844 1256.878906 4126.777344 1255.703125 4127.398438 1254.550781 C 4128.019531 1253.402344 4128.691406 1252.285156 4129.417969 1251.203125 C 4130.148438 1250.117188 4130.925781 1249.070312 4131.757812 1248.0625 C 4132.585938 1247.054688 4133.464844 1246.089844 4134.386719 1245.164062 C 4135.308594 1244.242188 4136.277344 1243.367188 4137.285156 1242.535156 C 4138.292969 1241.707031 4139.339844 1240.929688 4140.425781 1240.199219 C 4141.511719 1239.472656 4142.628906 1238.800781 4143.777344 1238.179688 C 4144.925781 1237.558594 4146.105469 1237 4147.308594 1236.492188 C 4148.515625 1235.988281 4149.738281 1235.542969 4150.988281 1235.15625 C 4152.234375 1234.773438 4153.5 1234.445312 4154.777344 1234.183594 C 4156.058594 1233.921875 4157.347656 1233.71875 4158.648438 1233.582031 C 4159.945312 1233.445312 4161.25 1233.371094 4162.554688 1233.359375 C 4163.859375 1233.347656 4165.164062 1233.398438 4166.464844 1233.515625 C 4167.765625 1233.628906 4169.058594 1233.808594 4170.34375 1234.046875 C 4171.625 1234.289062 4172.894531 1234.59375 4174.148438 1234.957031 C 4175.40625 1235.320312 4176.636719 1235.746094 4177.851562 1236.226562 C 4179.066406 1236.710938 4180.25 1237.253906 4181.414062 1237.851562 C 4182.574219 1238.453125 4183.703125 1239.105469 4184.796875 1239.816406 C 4185.894531 1240.523438 4186.957031 1241.285156 4187.980469 1242.097656 C 4189 1242.90625 4189.984375 1243.765625 4190.921875 1244.675781 L 4283.402344 1337.113281 L 4496.871094 1123.730469 C 4497.808594 1122.820312 4498.792969 1121.960938 4499.8125 1121.148438 C 4500.835938 1120.339844 4501.898438 1119.578125 4502.996094 1118.871094 C 4504.089844 1118.160156 4505.21875 1117.507812 4506.378906 1116.90625 C 4507.542969 1116.308594 4508.726562 1115.765625 4509.941406 1115.28125 C 4511.15625 1114.800781 4512.386719 1114.375 4513.644531 1114.011719 C 4514.898438 1113.648438 4516.167969 1113.34375 4517.449219 1113.105469 C 4518.734375 1112.863281 4520.027344 1112.683594 4521.328125 1112.570312 C 4522.628906 1112.453125 4523.933594 1112.402344 4525.238281 1112.414062 C 4526.542969 1112.425781 4527.847656 1112.5 4529.144531 1112.636719 C 4530.445312 1112.773438 4531.734375 1112.976562 4533.015625 1113.238281 C 4534.292969 1113.503906 4535.558594 1113.828125 4536.804688 1114.210938 C 4538.054688 1114.597656 4539.277344 1115.042969 4540.484375 1115.546875 C 4541.6875 1116.054688 4542.867188 1116.617188 4544.015625 1117.234375 C 4545.164062 1117.855469 4546.28125 1118.527344 4547.367188 1119.253906 C 4548.453125 1119.984375 4549.5 1120.761719 4550.507812 1121.589844 C 4551.515625 1122.421875 4552.480469 1123.296875 4553.40625 1124.21875 C 4554.328125 1125.144531 4555.207031 1126.109375 4556.035156 1127.117188 C 4556.867188 1128.125 4557.644531 1129.171875 4558.371094 1130.257812 C 4559.101562 1131.339844 4559.773438 1132.457031 4560.394531 1133.605469 C 4561.011719 1134.757812 4561.574219 1135.933594 4562.082031 1137.136719 C 4562.585938 1138.339844 4563.03125 1139.566406 4563.417969 1140.816406 C 4563.804688 1142.0625 4564.128906 1143.324219 4564.390625 1144.605469 C 4564.65625 1145.882812 4564.855469 1147.171875 4564.992188 1148.46875 C 4565.128906 1149.769531 4565.207031 1151.070312 4565.214844 1152.375 C 4565.226562 1153.683594 4565.175781 1154.984375 4565.0625 1156.285156 C 4564.945312 1157.585938 4564.765625 1158.878906 4564.527344 1160.160156 C 4564.285156 1161.445312 4563.984375 1162.714844 4563.617188 1163.96875 C 4563.253906 1165.222656 4562.832031 1166.457031 4562.347656 1167.667969 C 4561.863281 1168.878906 4561.320312 1170.066406 4560.722656 1171.226562 C 4560.121094 1172.386719 4559.46875 1173.515625 4558.757812 1174.613281 C 4558.050781 1175.710938 4557.289062 1176.769531 4556.476562 1177.792969 C 4555.664062 1178.8125 4554.804688 1179.796875 4553.898438 1180.734375 L 4311.914062 1422.625 C 4310.042969 1424.5 4308.007812 1426.175781 4305.808594 1427.648438 C 4303.605469 1429.121094 4301.285156 1430.363281 4298.835938 1431.375 C 4296.390625 1432.390625 4293.867188 1433.152344 4291.269531 1433.667969 C 4288.671875 1434.183594 4286.050781 1434.441406 4283.402344 1434.4375 Z M 4283.402344 1434.4375 " fill-opacity="1" fill-rule="nonzero"/><g fill="#ffffff" fill-opacity="1"><g transform="translate(1846.216117, 591.14701)"><g><path d="M 108.125 -204.078125 C 51.308594 -204.078125 13.625 -160.015625 13.625 -99.140625 C 13.625 -40.582031 46.089844 4.058594 104.359375 4.058594 C 157.117188 4.058594 184.074219 -27.539062 187.84375 -63.773438 L 188.132812 -66.671875 L 163.203125 -66.671875 L 162.625 -63.773438 C 156.828125 -35.074219 139.144531 -15.652344 105.808594 -15.652344 C 66.382812 -15.652344 41.453125 -51.019531 41.453125 -100.300781 C 41.453125 -148.710938 66.671875 -184.367188 107.546875 -184.367188 C 140.882812 -184.367188 158.566406 -164.945312 164.363281 -136.246094 L 164.945312 -133.347656 L 189.875 -133.347656 L 189.582031 -136.246094 C 185.523438 -175.378906 158.855469 -204.078125 108.125 -204.078125 Z M 108.125 -204.078125 "/></g></g></g><g fill="#ffffff" fill-opacity="1"><g transform="translate(2048.844131, 591.14701)"><g><path d="M 84.9375 -157.695312 C 32.757812 -157.695312 8.695312 -120.300781 8.695312 -76.820312 C 8.695312 -33.625 32.757812 4.058594 84.9375 4.058594 C 137.113281 4.058594 161.175781 -33.625 161.175781 -76.820312 C 161.175781 -120.300781 137.113281 -157.695312 84.9375 -157.695312 Z M 84.9375 -15.074219 C 53.917969 -15.074219 35.945312 -40.875 35.945312 -76.820312 C 35.945312 -113.054688 53.917969 -138.5625 84.9375 -138.5625 C 115.953125 -138.5625 133.925781 -113.054688 133.925781 -76.820312 C 133.925781 -40.875 115.953125 -15.074219 84.9375 -15.074219 Z M 84.9375 -15.074219 "/></g></g></g><g fill="#ffffff" fill-opacity="1"><g transform="translate(2218.715365, 591.14701)"><g><path d="M 150.738281 -112.765625 C 148.421875 -139.722656 129.578125 -157.695312 95.953125 -157.695312 C 80.296875 -157.695312 68.992188 -155.085938 55.949219 -144.941406 L 46.382812 -127.257812 L 46.382812 -153.636719 L 21.453125 -153.636719 L 21.453125 0 L 46.382812 0 L 46.382812 -67.542969 C 46.382812 -120.011719 66.671875 -137.984375 90.734375 -137.984375 C 114.503906 -137.984375 124.359375 -124.648438 125.808594 -106.675781 C 126.390625 -98.851562 126.390625 -92.472656 126.390625 -84.644531 L 126.390625 0 L 151.320312 0 L 151.320312 -86.386719 C 151.320312 -98.851562 151.320312 -104.9375 150.738281 -112.765625 Z M 150.738281 -112.765625 "/></g></g></g><g fill="#ffffff" fill-opacity="1"><g transform="translate(2390.615788, 591.14701)"><g><path d="M 155.667969 -213.0625 L 130.738281 -213.0625 L 130.738281 -132.476562 L 120.589844 -147.550781 C 112.765625 -153.929688 96.53125 -157.695312 83.777344 -157.695312 C 44.0625 -157.695312 8.695312 -131.316406 8.695312 -74.5 C 8.695312 -29.566406 33.625 4.058594 78.558594 4.058594 C 94.210938 4.058594 110.445312 -0.871094 119.140625 -8.117188 L 130.738281 -24.640625 L 130.738281 0 L 155.667969 0 Z M 82.328125 -15.074219 C 51.597656 -15.074219 35.945312 -42.613281 35.945312 -77.398438 C 35.945312 -117.691406 56.816406 -138.5625 83.777344 -138.5625 C 105.808594 -138.5625 130.738281 -123.488281 130.738281 -83.777344 L 130.738281 -75.371094 C 130.738281 -31.308594 107.835938 -15.074219 82.328125 -15.074219 Z M 82.328125 -15.074219 "/></g></g></g><g fill="#ffffff" fill-opacity="1"><g transform="translate(2568.893648, 591.14701)"><g><path d="M 33.917969 -204.078125 C 24.929688 -204.078125 17.972656 -197.121094 17.972656 -188.132812 C 17.972656 -179.148438 24.929688 -172.191406 33.917969 -172.191406 C 42.902344 -172.191406 49.859375 -179.148438 49.859375 -188.132812 C 49.859375 -197.121094 42.902344 -204.078125 33.917969 -204.078125 Z M 46.382812 0 L 46.382812 -153.636719 L 21.453125 -153.636719 L 21.453125 0 Z M 46.382812 0 "/></g></g></g><g fill="#ffffff" fill-opacity="1"><g transform="translate(2637.885751, 591.14701)"><g><path d="M 147.261719 -153.636719 L 120.882812 -153.636719 L 74.789062 -18.261719 L 27.828125 -153.636719 L 0.289062 -153.636719 L 58.554688 0 L 88.992188 0 Z M 147.261719 -153.636719 "/></g></g></g><g fill="#ffffff" fill-opacity="1"><g transform="translate(2786.88545, 591.14701)"><g><path d="M 33.917969 -204.078125 C 24.929688 -204.078125 17.972656 -197.121094 17.972656 -188.132812 C 17.972656 -179.148438 24.929688 -172.191406 33.917969 -172.191406 C 42.902344 -172.191406 49.859375 -179.148438 49.859375 -188.132812 C 49.859375 -197.121094 42.902344 -204.078125 33.917969 -204.078125 Z M 46.382812 0 L 46.382812 -153.636719 L 21.453125 -153.636719 L 21.453125 0 Z M 46.382812 0 "/></g></g></g><g fill="#ffffff" fill-opacity="1"><g transform="translate(2855.877506, 591.14701)"><g><path d="M 155.667969 -213.0625 L 130.738281 -213.0625 L 130.738281 -132.476562 L 120.589844 -147.550781 C 112.765625 -153.929688 96.53125 -157.695312 83.777344 -157.695312 C 44.0625 -157.695312 8.695312 -131.316406 8.695312 -74.5 C 8.695312 -29.566406 33.625 4.058594 78.558594 4.058594 C 94.210938 4.058594 110.445312 -0.871094 119.140625 -8.117188 L 130.738281 -24.640625 L 130.738281 0 L 155.667969 0 Z M 82.328125 -15.074219 C 51.597656 -15.074219 35.945312 -42.613281 35.945312 -77.398438 C 35.945312 -117.691406 56.816406 -138.5625 83.777344 -138.5625 C 105.808594 -138.5625 130.738281 -123.488281 130.738281 -83.777344 L 130.738281 -75.371094 C 130.738281 -31.308594 107.835938 -15.074219 82.328125 -15.074219 Z M 82.328125 -15.074219 "/></g></g></g><g fill="#ffffff" fill-opacity="1"><g transform="translate(3034.155366, 591.14701)"><g><path d="M 33.917969 -204.078125 C 24.929688 -204.078125 17.972656 -197.121094 17.972656 -188.132812 C 17.972656 -179.148438 24.929688 -172.191406 33.917969 -172.191406 C 42.902344 -172.191406 49.859375 -179.148438 49.859375 -188.132812 C 49.859375 -197.121094 42.902344 -204.078125 33.917969 -204.078125 Z M 46.382812 0 L 46.382812 -153.636719 L 21.453125 -153.636719 L 21.453125 0 Z M 46.382812 0 "/></g></g></g><g fill="#ffffff" fill-opacity="1"><g transform="translate(3103.141292, 591.14701)"><g/></g></g><g fill="#ffffff" fill-opacity="1"><g transform="translate(1849.988099, 996.740514)"><g><path d="M 33.917969 -204.078125 C 24.929688 -204.078125 17.972656 -197.121094 17.972656 -188.132812 C 17.972656 -179.148438 24.929688 -172.191406 33.917969 -172.191406 C 42.902344 -172.191406 49.859375 -179.148438 49.859375 -188.132812 C 49.859375 -197.121094 42.902344 -204.078125 33.917969 -204.078125 Z M 46.382812 0 L 46.382812 -153.636719 L 21.453125 -153.636719 L 21.453125 0 Z M 46.382812 0 "/></g></g></g><g fill="#ffffff" fill-opacity="1"><g transform="translate(1918.980189, 996.740514)"><g><path d="M 45.222656 -213.0625 L 20.292969 -213.0625 L 20.292969 -43.191406 C 20.292969 -34.785156 20.292969 -28.117188 20.582031 -22.902344 C 21.453125 -3.480469 32.175781 1.160156 46.671875 1.160156 C 52.46875 1.160156 58.847656 0.871094 64.355469 0 L 64.355469 -17.972656 C 50.730469 -16.523438 46.089844 -19.710938 45.511719 -29.566406 C 45.222656 -34.496094 45.222656 -39.425781 45.222656 -44.0625 Z M 45.222656 -213.0625 "/></g></g></g><g fill="#ffffff" fill-opacity="1"><g transform="translate(1990.581179, 996.740514)"><g/></g></g><g fill="#ffffff" fill-opacity="1"><g transform="translate(2053.19581, 996.740514)"><g><path d="M 81.746094 -157.117188 C 74.5 -157.117188 66.671875 -154.507812 60.296875 -150.160156 L 46.382812 -129.578125 L 46.382812 -153.636719 L 21.453125 -153.636719 L 21.453125 0 L 46.382812 0 L 46.382812 -87.542969 C 46.382812 -122.621094 66.09375 -137.984375 92.183594 -136.246094 L 92.183594 -155.085938 C 89.285156 -156.535156 85.804688 -157.117188 81.746094 -157.117188 Z M 81.746094 -157.117188 "/></g></g></g><g fill="#ffffff" fill-opacity="1"><g transform="translate(2148.857096, 996.740514)"><g><path d="M 33.917969 -204.078125 C 24.929688 -204.078125 17.972656 -197.121094 17.972656 -188.132812 C 17.972656 -179.148438 24.929688 -172.191406 33.917969 -172.191406 C 42.902344 -172.191406 49.859375 -179.148438 49.859375 -188.132812 C 49.859375 -197.121094 42.902344 -204.078125 33.917969 -204.078125 Z M 46.382812 0 L 46.382812 -153.636719 L 21.453125 -153.636719 L 21.453125 0 Z M 46.382812 0 "/></g></g></g><g fill="#ffffff" fill-opacity="1"><g transform="translate(2217.849198, 996.740514)"><g><path d="M 66.09375 -157.695312 C 34.496094 -157.695312 13.042969 -140.882812 13.042969 -112.765625 C 13.042969 -85.804688 35.074219 -74.5 62.613281 -66.964844 C 88.414062 -60.003906 98.851562 -52.179688 98.851562 -37.394531 C 98.851562 -22.609375 85.515625 -15.074219 68.992188 -15.074219 C 51.308594 -15.074219 37.105469 -22.902344 33.046875 -45.222656 L 6.957031 -45.222656 C 11.59375 -10.4375 35.65625 4.058594 67.253906 4.058594 C 99.71875 4.058594 124.359375 -10.4375 124.359375 -39.425781 C 124.359375 -65.511719 107.546875 -79.429688 72.179688 -88.703125 C 51.308594 -94.210938 38.554688 -100.300781 38.554688 -115.664062 C 38.554688 -128.996094 46.671875 -138.5625 64.0625 -138.5625 C 82.035156 -138.5625 93.050781 -127.839844 96.53125 -109.867188 L 122.621094 -109.867188 C 119.433594 -137.984375 100.589844 -157.695312 66.09375 -157.695312 Z M 66.09375 -157.695312 "/></g></g></g><g fill="#ffffff" fill-opacity="1"><g transform="translate(2350.905324, 996.740514)"><g><path d="M 149 -153.636719 L 124.070312 -153.636719 L 124.070312 -86.09375 C 124.070312 -33.625 104.9375 -15.652344 80.878906 -15.652344 C 60.003906 -15.652344 47.539062 -27.539062 45.222656 -44.933594 C 44.351562 -52.757812 44.0625 -61.164062 44.0625 -66.09375 L 44.0625 -153.636719 L 19.132812 -153.636719 L 19.132812 -61.457031 C 19.132812 -48.992188 19.421875 -42.902344 20.582031 -35.074219 C 24.058594 -13.914062 42.613281 4.058594 74.5 4.058594 C 90.152344 4.058594 101.460938 1.449219 114.503906 -8.117188 L 124.070312 -26.089844 L 124.070312 0 L 149 0 Z M 149 -153.636719 "/></g></g></g><g fill="#ffffff" fill-opacity="1"><g transform="translate(2522.515864, 996.740514)"><g><path d="M 45.222656 -213.0625 L 20.292969 -213.0625 L 20.292969 -43.191406 C 20.292969 -34.785156 20.292969 -28.117188 20.582031 -22.902344 C 21.453125 -3.480469 32.175781 1.160156 46.671875 1.160156 C 52.46875 1.160156 58.847656 0.871094 64.355469 0 L 64.355469 -17.972656 C 50.730469 -16.523438 46.089844 -19.710938 45.511719 -29.566406 C 45.222656 -34.496094 45.222656 -39.425781 45.222656 -44.0625 Z M 45.222656 -213.0625 "/></g></g></g><g fill="#ffffff" fill-opacity="1"><g transform="translate(2594.116854, 996.740514)"><g><path d="M 51.308594 -133.347656 L 80.007812 -133.347656 L 80.007812 -152.480469 L 51.308594 -152.480469 L 51.308594 -188.132812 L 26.378906 -188.132812 L 26.378906 -152.480469 L 5.796875 -152.480469 L 5.796875 -133.347656 L 26.378906 -133.347656 L 26.378906 -43.773438 C 26.378906 -35.074219 26.378906 -28.699219 26.667969 -24.640625 C 28.117188 -5.507812 37.976562 2.320312 57.105469 2.320312 C 64.0625 2.320312 71.019531 2.027344 78.269531 0.871094 L 78.269531 -17.394531 C 58.847656 -15.074219 52.757812 -18.261719 51.597656 -33.046875 C 51.308594 -37.105469 51.308594 -39.714844 51.308594 -44.933594 Z M 51.308594 -133.347656 "/></g></g></g><g fill="#ffffff" fill-opacity="1"><g transform="translate(2684.85011, 996.740514)"><g><path d="M 109.574219 0 L 134.503906 0 C 132.1875 -17.101562 131.605469 -27.539062 131.605469 -39.132812 L 131.605469 -96.820312 C 131.605469 -103.488281 131.316406 -111.023438 130.738281 -117.113281 C 128.128906 -142.332031 112.765625 -157.695312 76.238281 -157.695312 C 42.324219 -157.695312 19.421875 -138.855469 17.101562 -106.097656 L 43.191406 -106.097656 C 44.933594 -127.257812 55.367188 -138.5625 76.238281 -138.5625 C 96.820312 -138.5625 104.9375 -129.289062 106.097656 -115.082031 C 106.675781 -109.285156 106.675781 -103.199219 106.675781 -96.53125 L 106.675781 -92.472656 L 96.820312 -92.472656 C 36.523438 -92.472656 10.4375 -74.5 10.4375 -39.714844 C 10.4375 -11.304688 32.175781 4.058594 60.003906 4.058594 C 74.789062 4.058594 88.125 1.738281 98.558594 -5.507812 L 106.96875 -22.03125 Z M 68.414062 -15.074219 C 49.570312 -15.074219 37.683594 -23.191406 37.683594 -41.742188 C 37.683594 -68.121094 64.355469 -77.109375 106.675781 -73.921875 L 106.675781 -58.265625 C 106.675781 -30.4375 91.601562 -15.074219 68.414062 -15.074219 Z M 68.414062 -15.074219 "/></g></g></g><g fill="#ffffff" fill-opacity="1"><g transform="translate(2838.777838, 996.740514)"><g><path d="M 51.308594 -133.347656 L 80.007812 -133.347656 L 80.007812 -152.480469 L 51.308594 -152.480469 L 51.308594 -188.132812 L 26.378906 -188.132812 L 26.378906 -152.480469 L 5.796875 -152.480469 L 5.796875 -133.347656 L 26.378906 -133.347656 L 26.378906 -43.773438 C 26.378906 -35.074219 26.378906 -28.699219 26.667969 -24.640625 C 28.117188 -5.507812 37.976562 2.320312 57.105469 2.320312 C 64.0625 2.320312 71.019531 2.027344 78.269531 0.871094 L 78.269531 -17.394531 C 58.847656 -15.074219 52.757812 -18.261719 51.597656 -33.046875 C 51.308594 -37.105469 51.308594 -39.714844 51.308594 -44.933594 Z M 51.308594 -133.347656 "/></g></g></g><g fill="#ffffff" fill-opacity="1"><g transform="translate(2929.511139, 996.740514)"><g><path d="M 84.9375 -157.695312 C 32.757812 -157.695312 8.695312 -120.300781 8.695312 -76.820312 C 8.695312 -33.625 32.757812 4.058594 84.9375 4.058594 C 137.113281 4.058594 161.175781 -33.625 161.175781 -76.820312 C 161.175781 -120.300781 137.113281 -157.695312 84.9375 -157.695312 Z M 84.9375 -15.074219 C 53.917969 -15.074219 35.945312 -40.875 35.945312 -76.820312 C 35.945312 -113.054688 53.917969 -138.5625 84.9375 -138.5625 C 115.953125 -138.5625 133.925781 -113.054688 133.925781 -76.820312 C 133.925781 -40.875 115.953125 -15.074219 84.9375 -15.074219 Z M 84.9375 -15.074219 "/></g></g></g><g fill="#ffffff" fill-opacity="1"><g transform="translate(3099.381043, 996.740514)"><g/></g></g><g fill="#ffffff" fill-opacity="1"><g transform="translate(1867.231445, 1402.334018)"><g><path d="M 66.09375 -157.695312 C 34.496094 -157.695312 13.042969 -140.882812 13.042969 -112.765625 C 13.042969 -85.804688 35.074219 -74.5 62.613281 -66.964844 C 88.414062 -60.003906 98.851562 -52.179688 98.851562 -37.394531 C 98.851562 -22.609375 85.515625 -15.074219 68.992188 -15.074219 C 51.308594 -15.074219 37.105469 -22.902344 33.046875 -45.222656 L 6.957031 -45.222656 C 11.59375 -10.4375 35.65625 4.058594 67.253906 4.058594 C 99.71875 4.058594 124.359375 -10.4375 124.359375 -39.425781 C 124.359375 -65.511719 107.546875 -79.429688 72.179688 -88.703125 C 51.308594 -94.210938 38.554688 -100.300781 38.554688 -115.664062 C 38.554688 -128.996094 46.671875 -138.5625 64.0625 -138.5625 C 82.035156 -138.5625 93.050781 -127.839844 96.53125 -109.867188 L 122.621094 -109.867188 C 119.433594 -137.984375 100.589844 -157.695312 66.09375 -157.695312 Z M 66.09375 -157.695312 "/></g></g></g><g fill="#ffffff" fill-opacity="1"><g transform="translate(2000.287564, 1402.334018)"><g><path d="M 149 -153.636719 L 124.070312 -153.636719 L 124.070312 -86.09375 C 124.070312 -33.625 104.9375 -15.652344 80.878906 -15.652344 C 60.003906 -15.652344 47.539062 -27.539062 45.222656 -44.933594 C 44.351562 -52.757812 44.0625 -61.164062 44.0625 -66.09375 L 44.0625 -153.636719 L 19.132812 -153.636719 L 19.132812 -61.457031 C 19.132812 -48.992188 19.421875 -42.902344 20.582031 -35.074219 C 24.058594 -13.914062 42.613281 4.058594 74.5 4.058594 C 90.152344 4.058594 101.460938 1.449219 114.503906 -8.117188 L 124.070312 -26.089844 L 124.070312 0 L 149 0 Z M 149 -153.636719 "/></g></g></g><g fill="#ffffff" fill-opacity="1"><g transform="translate(2171.898119, 1402.334018)"><g/></g></g><g fill="#ffffff" fill-opacity="1"><g transform="translate(2234.512761, 1402.334018)"><g><path d="M 177.410156 -179.726562 L 177.410156 -200.019531 L 9.855469 -200.019531 L 9.855469 -179.726562 L 81.167969 -179.726562 L 81.167969 0 L 106.097656 0 L 106.097656 -179.726562 Z M 177.410156 -179.726562 "/></g></g></g><g fill="#ffffff" fill-opacity="1"><g transform="translate(2411.920957, 1402.334018)"><g><path d="M 225.820312 -153.636719 L 199.148438 -153.636719 L 163.492188 -24.640625 L 129.289062 -153.636719 L 98.269531 -153.636719 L 64.644531 -23.769531 L 28.988281 -153.636719 L 0.289062 -153.636719 L 49.28125 0 L 78.847656 0 L 113.054688 -129.289062 L 147.261719 0 L 176.828125 0 Z M 225.820312 -153.636719 "/></g></g></g><g fill="#ffffff" fill-opacity="1"><g transform="translate(2639.478893, 1402.334018)"><g><path d="M 33.917969 -204.078125 C 24.929688 -204.078125 17.972656 -197.121094 17.972656 -188.132812 C 17.972656 -179.148438 24.929688 -172.191406 33.917969 -172.191406 C 42.902344 -172.191406 49.859375 -179.148438 49.859375 -188.132812 C 49.859375 -197.121094 42.902344 -204.078125 33.917969 -204.078125 Z M 46.382812 0 L 46.382812 -153.636719 L 21.453125 -153.636719 L 21.453125 0 Z M 46.382812 0 "/></g></g></g><g fill="#ffffff" fill-opacity="1"><g transform="translate(2708.470949, 1402.334018)"><g><path d="M 51.308594 -133.347656 L 80.007812 -133.347656 L 80.007812 -152.480469 L 51.308594 -152.480469 L 51.308594 -188.132812 L 26.378906 -188.132812 L 26.378906 -152.480469 L 5.796875 -152.480469 L 5.796875 -133.347656 L 26.378906 -133.347656 L 26.378906 -43.773438 C 26.378906 -35.074219 26.378906 -28.699219 26.667969 -24.640625 C 28.117188 -5.507812 37.976562 2.320312 57.105469 2.320312 C 64.0625 2.320312 71.019531 2.027344 78.269531 0.871094 L 78.269531 -17.394531 C 58.847656 -15.074219 52.757812 -18.261719 51.597656 -33.046875 C 51.308594 -37.105469 51.308594 -39.714844 51.308594 -44.933594 Z M 51.308594 -133.347656 "/></g></g></g><g fill="#ffffff" fill-opacity="1"><g transform="translate(2799.204251, 1402.334018)"><g><path d="M 51.308594 -133.347656 L 80.007812 -133.347656 L 80.007812 -152.480469 L 51.308594 -152.480469 L 51.308594 -188.132812 L 26.378906 -188.132812 L 26.378906 -152.480469 L 5.796875 -152.480469 L 5.796875 -133.347656 L 26.378906 -133.347656 L 26.378906 -43.773438 C 26.378906 -35.074219 26.378906 -28.699219 26.667969 -24.640625 C 28.117188 -5.507812 37.976562 2.320312 57.105469 2.320312 C 64.0625 2.320312 71.019531 2.027344 78.269531 0.871094 L 78.269531 -17.394531 C 58.847656 -15.074219 52.757812 -18.261719 51.597656 -33.046875 C 51.308594 -37.105469 51.308594 -39.714844 51.308594 -44.933594 Z M 51.308594 -133.347656 "/></g></g></g><g fill="#ffffff" fill-opacity="1"><g transform="translate(2889.937552, 1402.334018)"><g><path d="M 147.550781 -81.167969 C 147.550781 -126.097656 124.070312 -157.695312 81.746094 -157.695312 C 39.714844 -157.695312 8.695312 -126.097656 8.695312 -76.238281 C 8.695312 -22.03125 38.554688 4.058594 78.558594 4.058594 C 110.15625 4.058594 139.433594 -12.464844 145.519531 -49.570312 L 119.433594 -49.570312 C 115.953125 -27.539062 99.71875 -15.074219 79.71875 -15.074219 C 57.105469 -15.074219 37.976562 -28.699219 35.65625 -69.28125 L 146.972656 -69.28125 C 147.550781 -74.789062 147.550781 -78.847656 147.550781 -81.167969 Z M 81.167969 -138.5625 C 106.386719 -138.5625 120.011719 -120.300781 122.332031 -88.414062 L 35.945312 -88.414062 C 38.84375 -121.171875 56.816406 -138.5625 81.167969 -138.5625 Z M 81.167969 -138.5625 "/></g></g></g><g fill="#ffffff" fill-opacity="1"><g transform="translate(3049.083147, 1402.334018)"><g><path d="M 81.746094 -157.117188 C 74.5 -157.117188 66.671875 -154.507812 60.296875 -150.160156 L 46.382812 -129.578125 L 46.382812 -153.636719 L 21.453125 -153.636719 L 21.453125 0 L 46.382812 0 L 46.382812 -87.542969 C 46.382812 -122.621094 66.09375 -137.984375 92.183594 -136.246094 L 92.183594 -155.085938 C 89.285156 -156.535156 85.804688 -157.117188 81.746094 -157.117188 Z M 81.746094 -157.117188 "/></g></g></g><g fill="#ffffff" fill-opacity="1"><g transform="translate(1442.262601, 1807.927522)"><g><path d="M 155.667969 -213.0625 L 130.738281 -213.0625 L 130.738281 -132.476562 L 120.589844 -147.550781 C 112.765625 -153.929688 96.53125 -157.695312 83.777344 -157.695312 C 44.0625 -157.695312 8.695312 -131.316406 8.695312 -74.5 C 8.695312 -29.566406 33.625 4.058594 78.558594 4.058594 C 94.210938 4.058594 110.445312 -0.871094 119.140625 -8.117188 L 130.738281 -24.640625 L 130.738281 0 L 155.667969 0 Z M 82.328125 -15.074219 C 51.597656 -15.074219 35.945312 -42.613281 35.945312 -77.398438 C 35.945312 -117.691406 56.816406 -138.5625 83.777344 -138.5625 C 105.808594 -138.5625 130.738281 -123.488281 130.738281 -83.777344 L 130.738281 -75.371094 C 130.738281 -31.308594 107.835938 -15.074219 82.328125 -15.074219 Z M 82.328125 -15.074219 "/></g></g></g><g fill="#ffffff" fill-opacity="1"><g transform="translate(1620.540461, 1807.927522)"><g><path d="M 33.917969 -204.078125 C 24.929688 -204.078125 17.972656 -197.121094 17.972656 -188.132812 C 17.972656 -179.148438 24.929688 -172.191406 33.917969 -172.191406 C 42.902344 -172.191406 49.859375 -179.148438 49.859375 -188.132812 C 49.859375 -197.121094 42.902344 -204.078125 33.917969 -204.078125 Z M 46.382812 0 L 46.382812 -153.636719 L 21.453125 -153.636719 L 21.453125 0 Z M 46.382812 0 "/></g></g></g><g fill="#ffffff" fill-opacity="1"><g transform="translate(1689.532563, 1807.927522)"><g><path d="M 48.410156 -183.207031 C 50.441406 -195.671875 62.90625 -200.019531 81.746094 -196.539062 L 81.746094 -217.121094 C 76.527344 -217.992188 70.441406 -218.570312 64.0625 -218.570312 C 41.164062 -218.570312 26.089844 -206.105469 23.480469 -183.785156 C 22.902344 -178.566406 22.609375 -171.03125 22.609375 -165.234375 L 22.609375 -152.480469 L 6.085938 -152.480469 L 6.085938 -133.347656 L 22.609375 -133.347656 L 22.609375 0 L 47.539062 0 L 47.539062 -133.347656 L 79.136719 -133.347656 L 79.136719 -152.480469 L 47.539062 -152.480469 L 47.539062 -167.550781 C 47.539062 -171.902344 47.832031 -179.148438 48.410156 -183.207031 Z M 48.410156 -183.207031 "/></g></g></g><g fill="#ffffff" fill-opacity="1"><g transform="translate(1773.598523, 1807.927522)"><g><path d="M 48.410156 -183.207031 C 50.441406 -195.671875 62.90625 -200.019531 81.746094 -196.539062 L 81.746094 -217.121094 C 76.527344 -217.992188 70.441406 -218.570312 64.0625 -218.570312 C 41.164062 -218.570312 26.089844 -206.105469 23.480469 -183.785156 C 22.902344 -178.566406 22.609375 -171.03125 22.609375 -165.234375 L 22.609375 -152.480469 L 6.085938 -152.480469 L 6.085938 -133.347656 L 22.609375 -133.347656 L 22.609375 0 L 47.539062 0 L 47.539062 -133.347656 L 79.136719 -133.347656 L 79.136719 -152.480469 L 47.539062 -152.480469 L 47.539062 -167.550781 C 47.539062 -171.902344 47.832031 -179.148438 48.410156 -183.207031 Z M 48.410156 -183.207031 "/></g></g></g><g fill="#ffffff" fill-opacity="1"><g transform="translate(1857.664483, 1807.927522)"><g><path d="M 84.9375 -157.695312 C 32.757812 -157.695312 8.695312 -120.300781 8.695312 -76.820312 C 8.695312 -33.625 32.757812 4.058594 84.9375 4.058594 C 137.113281 4.058594 161.175781 -33.625 161.175781 -76.820312 C 161.175781 -120.300781 137.113281 -157.695312 84.9375 -157.695312 Z M 84.9375 -15.074219 C 53.917969 -15.074219 35.945312 -40.875 35.945312 -76.820312 C 35.945312 -113.054688 53.917969 -138.5625 84.9375 -138.5625 C 115.953125 -138.5625 133.925781 -113.054688 133.925781 -76.820312 C 133.925781 -40.875 115.953125 -15.074219 84.9375 -15.074219 Z M 84.9375 -15.074219 "/></g></g></g><g fill="#ffffff" fill-opacity="1"><g transform="translate(2027.535739, 1807.927522)"><g><path d="M 150.738281 -112.765625 C 148.421875 -139.722656 129.578125 -157.695312 95.953125 -157.695312 C 80.296875 -157.695312 68.992188 -155.085938 55.949219 -144.941406 L 46.382812 -127.257812 L 46.382812 -153.636719 L 21.453125 -153.636719 L 21.453125 0 L 46.382812 0 L 46.382812 -67.542969 C 46.382812 -120.011719 66.671875 -137.984375 90.734375 -137.984375 C 114.503906 -137.984375 124.359375 -124.648438 125.808594 -106.675781 C 126.390625 -98.851562 126.390625 -92.472656 126.390625 -84.644531 L 126.390625 0 L 151.320312 0 L 151.320312 -86.386719 C 151.320312 -98.851562 151.320312 -104.9375 150.738281 -112.765625 Z M 150.738281 -112.765625 "/></g></g></g><g fill="#ffffff" fill-opacity="1"><g transform="translate(2199.436162, 1807.927522)"><g><path d="M 155.667969 -213.0625 L 130.738281 -213.0625 L 130.738281 -132.476562 L 120.589844 -147.550781 C 112.765625 -153.929688 96.53125 -157.695312 83.777344 -157.695312 C 44.0625 -157.695312 8.695312 -131.316406 8.695312 -74.5 C 8.695312 -29.566406 33.625 4.058594 78.558594 4.058594 C 94.210938 4.058594 110.445312 -0.871094 119.140625 -8.117188 L 130.738281 -24.640625 L 130.738281 0 L 155.667969 0 Z M 82.328125 -15.074219 C 51.597656 -15.074219 35.945312 -42.613281 35.945312 -77.398438 C 35.945312 -117.691406 56.816406 -138.5625 83.777344 -138.5625 C 105.808594 -138.5625 130.738281 -123.488281 130.738281 -83.777344 L 130.738281 -75.371094 C 130.738281 -31.308594 107.835938 -15.074219 82.328125 -15.074219 Z M 82.328125 -15.074219 "/></g></g></g><g fill="#ffffff" fill-opacity="1"><g transform="translate(2377.713977, 1807.927522)"><g><path d="M 33.917969 -204.078125 C 24.929688 -204.078125 17.972656 -197.121094 17.972656 -188.132812 C 17.972656 -179.148438 24.929688 -172.191406 33.917969 -172.191406 C 42.902344 -172.191406 49.859375 -179.148438 49.859375 -188.132812 C 49.859375 -197.121094 42.902344 -204.078125 33.917969 -204.078125 Z M 46.382812 0 L 46.382812 -153.636719 L 21.453125 -153.636719 L 21.453125 0 Z M 46.382812 0 "/></g></g></g><g fill="#ffffff" fill-opacity="1"><g transform="translate(2446.706034, 1807.927522)"><g/></g></g><g fill="#ffffff" fill-opacity="1"><g transform="translate(2509.320699, 1807.927522)"><g><path d="M 45.222656 -213.0625 L 20.292969 -213.0625 L 20.292969 -43.191406 C 20.292969 -34.785156 20.292969 -28.117188 20.582031 -22.902344 C 21.453125 -3.480469 32.175781 1.160156 46.671875 1.160156 C 52.46875 1.160156 58.847656 0.871094 64.355469 0 L 64.355469 -17.972656 C 50.730469 -16.523438 46.089844 -19.710938 45.511719 -29.566406 C 45.222656 -34.496094 45.222656 -39.425781 45.222656 -44.0625 Z M 45.222656 -213.0625 "/></g></g></g><g fill="#ffffff" fill-opacity="1"><g transform="translate(2580.921643, 1807.927522)"><g><path d="M 147.550781 -81.167969 C 147.550781 -126.097656 124.070312 -157.695312 81.746094 -157.695312 C 39.714844 -157.695312 8.695312 -126.097656 8.695312 -76.238281 C 8.695312 -22.03125 38.554688 4.058594 78.558594 4.058594 C 110.15625 4.058594 139.433594 -12.464844 145.519531 -49.570312 L 119.433594 -49.570312 C 115.953125 -27.539062 99.71875 -15.074219 79.71875 -15.074219 C 57.105469 -15.074219 37.976562 -28.699219 35.65625 -69.28125 L 146.972656 -69.28125 C 147.550781 -74.789062 147.550781 -78.847656 147.550781 -81.167969 Z M 81.167969 -138.5625 C 106.386719 -138.5625 120.011719 -120.300781 122.332031 -88.414062 L 35.945312 -88.414062 C 38.84375 -121.171875 56.816406 -138.5625 81.167969 -138.5625 Z M 81.167969 -138.5625 "/></g></g></g><g fill="#ffffff" fill-opacity="1"><g transform="translate(2740.067238, 1807.927522)"><g/></g></g><g fill="#ffffff" fill-opacity="1"><g transform="translate(2802.681903, 1807.927522)"><g><path d="M 66.09375 -157.695312 C 34.496094 -157.695312 13.042969 -140.882812 13.042969 -112.765625 C 13.042969 -85.804688 35.074219 -74.5 62.613281 -66.964844 C 88.414062 -60.003906 98.851562 -52.179688 98.851562 -37.394531 C 98.851562 -22.609375 85.515625 -15.074219 68.992188 -15.074219 C 51.308594 -15.074219 37.105469 -22.902344 33.046875 -45.222656 L 6.957031 -45.222656 C 11.59375 -10.4375 35.65625 4.058594 67.253906 4.058594 C 99.71875 4.058594 124.359375 -10.4375 124.359375 -39.425781 C 124.359375 -65.511719 107.546875 -79.429688 72.179688 -88.703125 C 51.308594 -94.210938 38.554688 -100.300781 38.554688 -115.664062 C 38.554688 -128.996094 46.671875 -138.5625 64.0625 -138.5625 C 82.035156 -138.5625 93.050781 -127.839844 96.53125 -109.867188 L 122.621094 -109.867188 C 119.433594 -137.984375 100.589844 -157.695312 66.09375 -157.695312 Z M 66.09375 -157.695312 "/></g></g></g><g fill="#ffffff" fill-opacity="1"><g transform="translate(2935.737984, 1807.927522)"><g><path d="M 80.878906 -157.695312 C 42.324219 -157.695312 8.695312 -128.417969 8.695312 -76.527344 C 8.695312 -20.292969 38.265625 4.058594 77.109375 4.058594 C 111.316406 4.058594 136.824219 -13.335938 144.363281 -48.992188 L 118.273438 -48.992188 C 113.054688 -26.667969 98.851562 -15.074219 78.558594 -15.074219 C 55.65625 -15.074219 35.945312 -33.625 35.945312 -78.269531 C 35.945312 -119.722656 56.238281 -138.5625 80.296875 -138.5625 C 100.878906 -138.5625 114.214844 -126.679688 119.722656 -102.039062 L 145.8125 -102.039062 C 141.171875 -135.664062 117.691406 -157.695312 80.878906 -157.695312 Z M 80.878906 -157.695312 "/></g></g></g><g fill="#ffffff" fill-opacity="1"><g transform="translate(3089.085856, 1807.927522)"><g><path d="M 147.550781 -81.167969 C 147.550781 -126.097656 124.070312 -157.695312 81.746094 -157.695312 C 39.714844 -157.695312 8.695312 -126.097656 8.695312 -76.238281 C 8.695312 -22.03125 38.554688 4.058594 78.558594 4.058594 C 110.15625 4.058594 139.433594 -12.464844 145.519531 -49.570312 L 119.433594 -49.570312 C 115.953125 -27.539062 99.71875 -15.074219 79.71875 -15.074219 C 57.105469 -15.074219 37.976562 -28.699219 35.65625 -69.28125 L 146.972656 -69.28125 C 147.550781 -74.789062 147.550781 -78.847656 147.550781 -81.167969 Z M 81.167969 -138.5625 C 106.386719 -138.5625 120.011719 -120.300781 122.332031 -88.414062 L 35.945312 -88.414062 C 38.84375 -121.171875 56.816406 -138.5625 81.167969 -138.5625 Z M 81.167969 -138.5625 "/></g></g></g><g fill="#ffffff" fill-opacity="1"><g transform="translate(3248.23136, 1807.927522)"><g><path d="M 45.222656 -213.0625 L 20.292969 -213.0625 L 20.292969 -43.191406 C 20.292969 -34.785156 20.292969 -28.117188 20.582031 -22.902344 C 21.453125 -3.480469 32.175781 1.160156 46.671875 1.160156 C 52.46875 1.160156 58.847656 0.871094 64.355469 0 L 64.355469 -17.972656 C 50.730469 -16.523438 46.089844 -19.710938 45.511719 -29.566406 C 45.222656 -34.496094 45.222656 -39.425781 45.222656 -44.0625 Z M 45.222656 -213.0625 "/></g></g></g><g fill="#ffffff" fill-opacity="1"><g transform="translate(3319.832396, 1807.927522)"><g><path d="M 51.308594 -133.347656 L 80.007812 -133.347656 L 80.007812 -152.480469 L 51.308594 -152.480469 L 51.308594 -188.132812 L 26.378906 -188.132812 L 26.378906 -152.480469 L 5.796875 -152.480469 L 5.796875 -133.347656 L 26.378906 -133.347656 L 26.378906 -43.773438 C 26.378906 -35.074219 26.378906 -28.699219 26.667969 -24.640625 C 28.117188 -5.507812 37.976562 2.320312 57.105469 2.320312 C 64.0625 2.320312 71.019531 2.027344 78.269531 0.871094 L 78.269531 -17.394531 C 58.847656 -15.074219 52.757812 -18.261719 51.597656 -33.046875 C 51.308594 -37.105469 51.308594 -39.714844 51.308594 -44.933594 Z M 51.308594 -133.347656 "/></g></g></g><g fill="#ffffff" fill-opacity="1"><g transform="translate(3410.565698, 1807.927522)"><g><path d="M 147.550781 -81.167969 C 147.550781 -126.097656 124.070312 -157.695312 81.746094 -157.695312 C 39.714844 -157.695312 8.695312 -126.097656 8.695312 -76.238281 C 8.695312 -22.03125 38.554688 4.058594 78.558594 4.058594 C 110.15625 4.058594 139.433594 -12.464844 145.519531 -49.570312 L 119.433594 -49.570312 C 115.953125 -27.539062 99.71875 -15.074219 79.71875 -15.074219 C 57.105469 -15.074219 37.976562 -28.699219 35.65625 -69.28125 L 146.972656 -69.28125 C 147.550781 -74.789062 147.550781 -78.847656 147.550781 -81.167969 Z M 81.167969 -138.5625 C 106.386719 -138.5625 120.011719 -120.300781 122.332031 -88.414062 L 35.945312 -88.414062 C 38.84375 -121.171875 56.816406 -138.5625 81.167969 -138.5625 Z M 81.167969 -138.5625 "/></g></g></g><g fill="#ffffff" fill-opacity="1"><g transform="translate(2036.23264, 2213.521027)"><g><path d="M 66.09375 -157.695312 C 34.496094 -157.695312 13.042969 -140.882812 13.042969 -112.765625 C 13.042969 -85.804688 35.074219 -74.5 62.613281 -66.964844 C 88.414062 -60.003906 98.851562 -52.179688 98.851562 -37.394531 C 98.851562 -22.609375 85.515625 -15.074219 68.992188 -15.074219 C 51.308594 -15.074219 37.105469 -22.902344 33.046875 -45.222656 L 6.957031 -45.222656 C 11.59375 -10.4375 35.65625 4.058594 67.253906 4.058594 C 99.71875 4.058594 124.359375 -10.4375 124.359375 -39.425781 C 124.359375 -65.511719 107.546875 -79.429688 72.179688 -88.703125 C 51.308594 -94.210938 38.554688 -100.300781 38.554688 -115.664062 C 38.554688 -128.996094 46.671875 -138.5625 64.0625 -138.5625 C 82.035156 -138.5625 93.050781 -127.839844 96.53125 -109.867188 L 122.621094 -109.867188 C 119.433594 -137.984375 100.589844 -157.695312 66.09375 -157.695312 Z M 66.09375 -157.695312 "/></g></g></g><g fill="#ffffff" fill-opacity="1"><g transform="translate(2169.288758, 2213.521027)"><g><path d="M 109.574219 0 L 134.503906 0 C 132.1875 -17.101562 131.605469 -27.539062 131.605469 -39.132812 L 131.605469 -96.820312 C 131.605469 -103.488281 131.316406 -111.023438 130.738281 -117.113281 C 128.128906 -142.332031 112.765625 -157.695312 76.238281 -157.695312 C 42.324219 -157.695312 19.421875 -138.855469 17.101562 -106.097656 L 43.191406 -106.097656 C 44.933594 -127.257812 55.367188 -138.5625 76.238281 -138.5625 C 96.820312 -138.5625 104.9375 -129.289062 106.097656 -115.082031 C 106.675781 -109.285156 106.675781 -103.199219 106.675781 -96.53125 L 106.675781 -92.472656 L 96.820312 -92.472656 C 36.523438 -92.472656 10.4375 -74.5 10.4375 -39.714844 C 10.4375 -11.304688 32.175781 4.058594 60.003906 4.058594 C 74.789062 4.058594 88.125 1.738281 98.558594 -5.507812 L 106.96875 -22.03125 Z M 68.414062 -15.074219 C 49.570312 -15.074219 37.683594 -23.191406 37.683594 -41.742188 C 37.683594 -68.121094 64.355469 -77.109375 106.675781 -73.921875 L 106.675781 -58.265625 C 106.675781 -30.4375 91.601562 -15.074219 68.414062 -15.074219 Z M 68.414062 -15.074219 "/></g></g></g><g fill="#ffffff" fill-opacity="1"><g transform="translate(2323.216479, 2213.521027)"><g><path d="M 45.222656 -213.0625 L 20.292969 -213.0625 L 20.292969 -43.191406 C 20.292969 -34.785156 20.292969 -28.117188 20.582031 -22.902344 C 21.453125 -3.480469 32.175781 1.160156 46.671875 1.160156 C 52.46875 1.160156 58.847656 0.871094 64.355469 0 L 64.355469 -17.972656 C 50.730469 -16.523438 46.089844 -19.710938 45.511719 -29.566406 C 45.222656 -34.496094 45.222656 -39.425781 45.222656 -44.0625 Z M 45.222656 -213.0625 "/></g></g></g><g fill="#ffffff" fill-opacity="1"><g transform="translate(2394.817469, 2213.521027)"><g><path d="M 149 -153.636719 L 124.070312 -153.636719 L 124.070312 -86.09375 C 124.070312 -33.625 104.9375 -15.652344 80.878906 -15.652344 C 60.003906 -15.652344 47.539062 -27.539062 45.222656 -44.933594 C 44.351562 -52.757812 44.0625 -61.164062 44.0625 -66.09375 L 44.0625 -153.636719 L 19.132812 -153.636719 L 19.132812 -61.457031 C 19.132812 -48.992188 19.421875 -42.902344 20.582031 -35.074219 C 24.058594 -13.914062 42.613281 4.058594 74.5 4.058594 C 90.152344 4.058594 101.460938 1.449219 114.503906 -8.117188 L 124.070312 -26.089844 L 124.070312 0 L 149 0 Z M 149 -153.636719 "/></g></g></g><g fill="#ffffff" fill-opacity="1"><g transform="translate(2566.428031, 2213.521027)"><g><path d="M 51.308594 -133.347656 L 80.007812 -133.347656 L 80.007812 -152.480469 L 51.308594 -152.480469 L 51.308594 -188.132812 L 26.378906 -188.132812 L 26.378906 -152.480469 L 5.796875 -152.480469 L 5.796875 -133.347656 L 26.378906 -133.347656 L 26.378906 -43.773438 C 26.378906 -35.074219 26.378906 -28.699219 26.667969 -24.640625 C 28.117188 -5.507812 37.976562 2.320312 57.105469 2.320312 C 64.0625 2.320312 71.019531 2.027344 78.269531 0.871094 L 78.269531 -17.394531 C 58.847656 -15.074219 52.757812 -18.261719 51.597656 -33.046875 C 51.308594 -37.105469 51.308594 -39.714844 51.308594 -44.933594 Z M 51.308594 -133.347656 "/></g></g></g><g fill="#ffffff" fill-opacity="1"><g transform="translate(2657.161333, 2213.521027)"><g><path d="M 109.574219 0 L 134.503906 0 C 132.1875 -17.101562 131.605469 -27.539062 131.605469 -39.132812 L 131.605469 -96.820312 C 131.605469 -103.488281 131.316406 -111.023438 130.738281 -117.113281 C 128.128906 -142.332031 112.765625 -157.695312 76.238281 -157.695312 C 42.324219 -157.695312 19.421875 -138.855469 17.101562 -106.097656 L 43.191406 -106.097656 C 44.933594 -127.257812 55.367188 -138.5625 76.238281 -138.5625 C 96.820312 -138.5625 104.9375 -129.289062 106.097656 -115.082031 C 106.675781 -109.285156 106.675781 -103.199219 106.675781 -96.53125 L 106.675781 -92.472656 L 96.820312 -92.472656 C 36.523438 -92.472656 10.4375 -74.5 10.4375 -39.714844 C 10.4375 -11.304688 32.175781 4.058594 60.003906 4.058594 C 74.789062 4.058594 88.125 1.738281 98.558594 -5.507812 L 106.96875 -22.03125 Z M 68.414062 -15.074219 C 49.570312 -15.074219 37.683594 -23.191406 37.683594 -41.742188 C 37.683594 -68.121094 64.355469 -77.109375 106.675781 -73.921875 L 106.675781 -58.265625 C 106.675781 -30.4375 91.601562 -15.074219 68.414062 -15.074219 Z M 68.414062 -15.074219 "/></g></g></g><g fill="#ffffff" fill-opacity="1"><g transform="translate(2811.089061, 2213.521027)"><g><path d="M 81.746094 -157.117188 C 74.5 -157.117188 66.671875 -154.507812 60.296875 -150.160156 L 46.382812 -129.578125 L 46.382812 -153.636719 L 21.453125 -153.636719 L 21.453125 0 L 46.382812 0 L 46.382812 -87.542969 C 46.382812 -122.621094 66.09375 -137.984375 92.183594 -136.246094 L 92.183594 -155.085938 C 89.285156 -156.535156 85.804688 -157.117188 81.746094 -157.117188 Z M 81.746094 -157.117188 "/></g></g></g><g fill="#ffffff" fill-opacity="1"><g transform="translate(2906.750301, 2213.521027)"><g><path d="M 33.917969 -204.078125 C 24.929688 -204.078125 17.972656 -197.121094 17.972656 -188.132812 C 17.972656 -179.148438 24.929688 -172.191406 33.917969 -172.191406 C 42.902344 -172.191406 49.859375 -179.148438 49.859375 -188.132812 C 49.859375 -197.121094 42.902344 -204.078125 33.917969 -204.078125 Z M 46.382812 0 L 46.382812 -153.636719 L 21.453125 -153.636719 L 21.453125 0 Z M 46.382812 0 "/></g></g></g></svg>